#Comment line ignore any data following # character 
#Hierarchical Translation and Rotation (.htr) file 
[Header]	
#Header keywords are followed by a single value 
FileType HTR		#Single word string
DataType HTRS		#Translation followed by rotation and scale data
FileVersion 1		#integer
NumSegments 25		#integer
NumFrames 4		#integer
DataFrameRate 30		#integer, data frame rate in this file
EulerRotationOrder ZYX
CalibrationUnits mm
RotationUnits Degrees
GlobalAxisofGravity Y
BoneLengthAxis Y
ScaleFactor 1.00
[SegmentNames&Hierarchy]
#CHILD	PARENT
BN_Tick_Root GLOBAL
BN_Torso BN_Tick_Root
BN_L_Leg_Front01 BN_Torso
BN_L_Leg_Rear01 BN_Torso
BN_MetalTop BN_Torso
BN_Neck BN_Torso
BN_R_Leg_Front01 BN_Torso
BN_R_Leg_Rear01 BN_Torso
BN_Sack BN_Torso
BN_L_Leg_Front02 BN_L_Leg_Front01
BN_L_Leg_Front03 BN_L_Leg_Front02
BN_L_Leg_Rear02 BN_L_Leg_Rear01
BN_L_Leg_Rear03 BN_L_Leg_Rear02
BN_Head BN_Neck
BN_Needle BN_Head
BN_R_Leg_Front02 BN_R_Leg_Front01
BN_R_Leg_Front03 BN_R_Leg_Front02
BN_R_Leg_Rear02 BN_R_Leg_Rear01
BN_R_Leg_Rear03 BN_R_Leg_Rear02
BN_SackDef01 BN_Sack
BN_SackDef02 BN_Sack
BN_SackDef03 BN_Sack
BN_SackDef04 BN_Sack
BN_SackDef05 BN_Sack
BN_SackDef06 BN_Sack
[BasePosition]
#SegmentName Tx, Ty, Tz, Rx, Ry, Rz, BoneLength
BN_Tick_Root 0.000000 0.000000 0.000000 -90.000000 0.000000 0.000000 10.000000 
BN_Torso 0.000000 0.000000 0.000000 0.000000 0.000000 0.000000 10.000000 
BN_L_Leg_Front01 0.000000 0.000000 0.000000 0.000000 0.000000 0.000000 10.000000 
BN_L_Leg_Rear01 0.000000 0.000000 0.000000 0.000000 0.000000 0.000000 10.000000 
BN_MetalTop 0.000000 0.000000 0.000000 0.000000 0.000000 0.000000 10.000000 
BN_Neck 0.000000 0.000000 0.000000 0.000000 0.000000 0.000000 10.000000 
BN_R_Leg_Front01 0.000000 0.000000 0.000000 0.000000 0.000000 0.000000 10.000000 
BN_R_Leg_Rear01 0.000000 0.000000 0.000000 0.000000 0.000000 0.000000 10.000000 
BN_Sack 0.000000 0.000000 0.000000 0.000000 0.000000 0.000000 10.000000 
BN_L_Leg_Front02 0.000000 0.000000 0.000000 0.000000 0.000000 0.000000 10.000000 
BN_L_Leg_Front03 0.000000 0.000000 0.000000 0.000000 0.000000 0.000000 10.000000 
BN_L_Leg_Rear02 0.000000 0.000000 0.000000 0.000000 0.000000 0.000000 10.000000 
BN_L_Leg_Rear03 0.000000 0.000000 0.000000 0.000000 0.000000 0.000000 10.000000 
BN_Head 0.000000 0.000000 0.000000 0.000000 0.000000 0.000000 10.000000 
BN_Needle 0.000000 0.000000 0.000000 0.000000 0.000000 0.000000 10.000000 
BN_R_Leg_Front02 0.000000 0.000000 0.000000 0.000000 0.000000 0.000000 10.000000 
BN_R_Leg_Front03 0.000000 0.000000 0.000000 0.000000 0.000000 0.000000 10.000000 
BN_R_Leg_Rear02 0.000000 0.000000 0.000000 0.000000 0.000000 0.000000 10.000000 
BN_R_Leg_Rear03 0.000000 0.000000 0.000000 0.000000 0.000000 0.000000 10.000000 
BN_SackDef01 0.000000 0.000000 0.000000 0.000000 0.000000 0.000000 10.000000 
BN_SackDef02 0.000000 0.000000 0.000000 0.000000 0.000000 0.000000 10.000000 
BN_SackDef03 0.000000 0.000000 0.000000 0.000000 0.000000 0.000000 10.000000 
BN_SackDef04 0.000000 0.000000 0.000000 0.000000 0.000000 0.000000 10.000000 
BN_SackDef05 0.000000 0.000000 0.000000 0.000000 0.000000 0.000000 10.000000 
BN_SackDef06 0.000000 0.000000 0.000000 0.000000 0.000000 0.000000 10.000000 
#Beginning of Data. Separated by tabs
#Fr	Tx	Ty	Tz	Rx	Ry	Rz	SF
[BN_Tick_Root]
52 0.000000 0.000000 0.000000 0.000000 0.000000 -0.000020 0.000000
53 0.000000 0.000000 0.000000 0.000000 0.000000 -0.000020 0.000000
54 0.000000 0.000000 0.000000 0.000000 0.000000 -0.000020 0.000000
55 0.000000 0.000000 0.000000 0.000000 0.000000 -0.000020 0.000000
[BN_Torso]
52 3.080180 123.721825 178.854477 5.552386 -2.999352 1.629510 217.498291
53 5.045118 80.234665 180.080505 7.176154 -3.030326 1.873887 197.210663
54 7.527505 28.577744 181.045135 8.040380 -3.068113 2.186648 183.441238
55 8.480936 14.846256 182.977386 7.409956 -3.109222 2.562090 183.774506
[BN_L_Leg_Front01]
52 -68.477791 10.734189 -26.804373 -37.394806 53.367565 -179.964401 74.316254
53 -68.477791 10.734189 -26.804373 -36.007900 52.024994 168.469437 74.316254
54 -68.477791 10.734189 -26.804373 -37.311352 49.804970 155.845322 74.316254
55 -68.477791 10.734189 -26.804373 -38.773407 48.977467 151.880814 74.316254
[BN_L_Leg_Rear01]
52 -72.133743 -73.994843 -18.268616 66.122055 31.695545 -121.763611 104.939293
53 -72.133743 -73.994843 -18.268616 67.432961 33.057674 -125.178711 104.939293
54 -72.133743 -73.994843 -18.268616 68.717354 36.536552 -130.852722 104.939293
55 -72.133743 -73.994843 -18.268616 68.424263 38.755463 -133.600296 104.939293
[BN_MetalTop]
52 0.000008 13.737477 26.403606 92.253143 -17.612062 -97.415108 29.763546
53 0.000008 13.737477 26.403606 92.253059 -17.610676 -97.415260 29.763546
54 0.000008 13.737477 26.403606 92.252968 -17.609293 -97.415421 29.763546
55 0.000008 13.737477 26.403606 92.252869 -17.607903 -97.415558 29.763546
[BN_Neck]
52 0.000014 95.233284 10.002091 -89.999672 -65.297531 89.999657 95.757088
53 0.000014 95.233284 10.002091 -89.999672 -65.297531 89.999657 95.757088
54 0.000014 95.233284 10.002091 -89.999672 -65.297531 89.999657 95.757088
55 0.000014 95.233284 10.002091 -89.999672 -65.297531 89.999657 95.757088
[BN_R_Leg_Front01]
52 68.477768 10.734107 -26.804314 33.098114 63.018440 -7.403674 74.316193
53 68.477768 10.734107 -26.804314 34.267509 61.750759 7.320321 74.316193
54 68.477768 10.734107 -26.804314 38.732147 59.020588 23.368502 74.316193
55 68.477768 10.734107 -26.804314 41.035618 58.079464 27.630606 74.316193
[BN_R_Leg_Rear01]
52 72.133751 -73.994873 -18.268644 -71.559456 44.733860 -64.871826 104.939331
53 72.133751 -73.994873 -18.268644 -72.966736 48.859123 -61.813908 104.939331
54 72.133751 -73.994873 -18.268644 -75.117867 56.803871 -55.613739 104.939331
55 72.133751 -73.994873 -18.268644 -75.103889 60.512951 -53.090702 104.939331
[BN_Sack]
52 -0.000000 -78.024918 33.657791 91.379875 -11.014523 -97.199577 84.974907
53 -0.000000 -78.024918 33.657791 91.379875 -11.014523 -97.199577 84.974907
54 -0.000000 -78.024918 33.657791 91.379875 -11.014524 -97.199577 84.974907
55 -0.000000 -78.024918 33.657791 91.379875 -11.014524 -97.199577 84.974907
[BN_L_Leg_Front02]
52 142.805023 -0.000015 -0.000104 -0.249232 0.977954 -159.567520 142.805023
53 142.805023 -0.000015 -0.000104 -0.090426 0.843125 -144.296585 142.805023
54 142.805023 -0.000015 -0.000104 0.054098 0.643070 -125.639122 142.805023
55 142.805023 -0.000015 -0.000104 0.088612 0.586318 -120.097488 142.805023
[BN_L_Leg_Front03]
52 124.143021 -0.000045 0.000007 0.351786 -0.206811 152.864548 124.143021
53 124.143021 -0.000045 0.000007 0.353174 -0.258342 144.900024 124.143021
54 124.143021 -0.000045 0.000007 0.353808 -0.332226 132.386505 124.143021
55 124.143021 -0.000045 0.000007 0.350628 -0.353486 127.936180 124.143021
[BN_L_Leg_Rear02]
52 139.939041 0.000075 -0.000022 0.120542 -0.202489 82.620857 139.939041
53 139.939041 0.000075 -0.000022 0.086816 -0.238174 94.826180 139.939041
54 139.939041 0.000075 -0.000022 0.033761 -0.250658 109.530861 139.939041
55 139.939041 0.000075 -0.000022 0.020687 -0.243320 113.006073 139.939041
[BN_L_Leg_Rear03]
52 142.839615 0.000179 -0.000060 0.000174 -0.002341 -98.479546 142.839615
53 142.839615 0.000179 -0.000060 0.000484 -0.002318 -113.573586 142.839615
54 142.839615 0.000179 -0.000060 0.000777 -0.002215 -128.667160 142.839615
55 142.839615 0.000179 -0.000060 0.000837 -0.002193 -131.774887 142.839615
[BN_Head]
52 57.062447 -0.000030 0.000000 -2.162071 6.319560 -12.691371 57.062447
53 57.062447 -0.000030 0.000000 -1.801902 6.530970 -5.785908 57.062447
54 57.062447 -0.000030 0.000000 -1.572312 6.756678 -0.393315 57.062447
55 57.062447 -0.000030 0.000000 -1.563109 6.981983 1.888580 57.062447
[BN_Needle]
52 44.469650 357.074188 -0.000081 0.000003 0.000030 87.896805 359.832642
53 39.708797 227.437164 -0.000067 0.000003 0.000030 87.896805 230.877579
54 36.950405 152.325272 -0.000058 0.000003 0.000030 87.896805 156.742844
55 36.641747 143.921783 -0.000060 0.000003 0.000030 87.896805 148.512955
[BN_R_Leg_Front02]
52 142.804947 -0.000060 0.000060 0.364325 1.060004 167.064819 142.804947
53 142.804947 -0.000060 0.000060 0.171592 0.926473 152.427658 142.804947
54 142.804947 -0.000060 0.000060 -0.004197 0.728407 133.519653 142.804947
55 142.804947 -0.000060 0.000060 -0.037143 0.667652 128.085190 142.804947
[BN_R_Leg_Front03]
52 124.143005 -0.000060 -0.000156 -0.354587 -0.179707 -156.204529 124.143005
53 124.143005 -0.000060 -0.000156 -0.353068 -0.228036 -149.348785 124.143005
54 124.143005 -0.000060 -0.000156 -0.351885 -0.301320 -138.103027 124.143005
55 124.143005 -0.000060 -0.000156 -0.353266 -0.319720 -134.227127 124.143005
[BN_R_Leg_Rear02]
52 139.939011 -0.000149 0.000015 -0.014981 -0.256414 -114.915749 139.939011
53 139.939011 -0.000149 0.000015 0.042398 -0.259485 -131.575165 139.939011
54 139.939011 -0.000149 0.000015 0.127459 -0.245417 -156.504028 139.939011
55 139.939011 -0.000149 0.000015 0.136877 -0.223378 -162.185135 139.939011
[BN_R_Leg_Rear03]
52 142.839417 0.000075 0.000119 0.002181 -0.000868 133.402908 142.839417
53 142.839417 0.000075 0.000119 0.002077 -0.001093 145.492874 142.839417
54 142.839417 0.000075 0.000119 0.001947 -0.001311 157.928070 142.839417
55 142.839417 0.000075 0.000119 0.001921 -0.001348 160.105942 142.839417
[BN_SackDef01]
52 250.358765 -3.780509 43.049606 -128.408218 -44.374973 -11.740845 254.061157
53 250.328415 -3.779463 43.044338 -128.408218 -44.374973 -11.740845 254.030334
54 250.298080 -3.778418 43.039070 -128.408218 -44.374973 -11.740845 253.999542
55 250.267746 -3.777372 43.033802 -128.408218 -44.374973 -11.740845 253.968750
[BN_SackDef02]
52 138.789810 -62.131634 45.674423 32.077126 -27.375721 -88.781525 158.773758
53 138.789810 -62.131634 45.674423 32.077126 -27.375721 -88.781525 158.773758
54 138.789810 -62.131634 45.674423 32.077126 -27.375721 -88.781525 158.773758
55 138.789810 -62.131634 45.674423 32.077126 -27.375721 -88.781525 158.773758
[BN_SackDef03]
52 250.358765 -3.780443 -43.049644 18.144459 44.375008 -11.740894 254.061157
53 250.328415 -3.779401 -43.044380 18.144459 44.375008 -11.740894 254.030334
54 250.298080 -3.778359 -43.039116 18.144459 44.375008 -11.740894 253.999542
55 250.267746 -3.777317 -43.033852 18.144459 44.375008 -11.740894 253.968750
[BN_SackDef04]
52 138.789810 -62.131538 -45.674427 146.059982 27.375723 -88.781555 158.773727
53 138.789810 -62.131538 -45.674427 146.059982 27.375723 -88.781555 158.773727
54 138.789810 -62.131538 -45.674423 146.059982 27.375723 -88.781555 158.773727
55 138.789810 -62.131538 -45.674423 146.059982 27.375723 -88.781555 158.773727
[BN_SackDef05]
52 119.072548 46.527073 -63.997208 0.155741 51.314110 90.605110 142.963913
53 119.057686 46.508129 -63.988468 0.155741 51.314110 90.605110 142.941467
54 119.042824 46.489189 -63.979736 0.155741 51.314110 90.605110 142.919022
55 119.027954 46.470245 -63.970997 0.155741 51.314110 90.605110 142.896561
[BN_SackDef06]
52 119.072609 46.527122 63.997223 152.058487 -51.314072 90.605019 142.964005
53 119.057747 46.508183 63.988483 152.058487 -51.314072 90.605019 142.941544
54 119.042885 46.489243 63.979744 152.058487 -51.314072 90.605019 142.919098
55 119.028023 46.470303 63.971004 152.058487 -51.314072 90.605019 142.896637
